<?xml version="1.0" standalone="no"?>
<!DOCTYPE svg PUBLIC "-//W3C//DTD SVG 20010904//EN"
 "http://www.w3.org/TR/2001/REC-SVG-20010904/DTD/svg10.dtd">
<svg version="1.0" xmlns="http://www.w3.org/2000/svg"
 width="512.000000pt" height="512.000000pt" viewBox="0 0 512.000000 512.000000"
 preserveAspectRatio="xMidYMid meet">
<metadata>
Created by potrace 1.11, written by Peter Selinger 2001-2013
</metadata>
<g transform="translate(0.000000,512.000000) scale(0.100000,-0.100000)"
fill="#000000" stroke="none">
<path d="M225 4575 c-5 -2 -22 -6 -37 -9 -34 -8 -84 -50 -105 -90 -16 -28 -17
-118 -18 -1052 l0 -1020 -29 -45 c-41 -62 -42 -140 -1 -201 l29 -43 1 -590 0
-590 24 -38 c32 -52 101 -91 158 -88 81 3 156 61 169 130 4 20 7 267 7 549 1
281 4 512 8 512 6 0 50 -12 144 -40 17 -5 41 -11 55 -14 14 -3 86 -21 160 -41
74 -20 143 -38 153 -40 10 -2 27 -7 37 -10 10 -3 27 -8 37 -10 10 -2 88 -22
173 -45 85 -23 173 -46 195 -51 22 -6 47 -12 55 -15 8 -2 60 -15 115 -30 55
-14 107 -27 115 -29 8 -2 42 -11 75 -20 33 -9 67 -18 75 -20 164 -38 152 -23
146 -173 -34 -821 -34 -761 -2 -817 57 -96 186 -117 271 -43 46 39 57 71 71
188 3 30 8 64 10 75 4 21 8 40 25 140 55 323 163 737 268 1025 73 203 196 443
284 554 51 64 100 115 107 111 12 -8 0 -266 -21 -435 -6 -47 -12 -103 -14
-125 -2 -22 -6 -49 -9 -61 -2 -12 -7 -45 -11 -75 -3 -30 -8 -61 -10 -69 -2 -8
-6 -37 -10 -65 -3 -27 -12 -90 -20 -140 -15 -99 -23 -148 -30 -197 -2 -18 -9
-69 -16 -113 -34 -237 -4 -362 97 -410 79 -37 181 -17 242 48 78 83 183 313
287 627 95 289 160 461 211 558 46 90 110 176 124 167 4 -3 8 -152 9 -333 1
-396 4 -443 38 -577 57 -226 229 -337 448 -290 191 41 366 78 390 81 41 7 53
9 187 38 129 27 169 49 198 107 26 49 29 86 14 138 -28 96 -119 144 -227 119
-23 -5 -53 -11 -67 -13 -24 -4 -44 -8 -100 -20 -14 -3 -34 -7 -45 -9 -11 -2
-54 -11 -95 -19 -41 -9 -86 -18 -100 -21 -14 -3 -36 -7 -50 -10 -14 -3 -41 -9
-60 -12 -19 -4 -44 -8 -55 -11 -63 -12 -84 -13 -89 -5 -5 8 -12 52 -21 137 -3
22 -5 187 -6 366 -1 179 -5 346 -9 370 -4 24 -10 60 -13 79 -19 127 -86 222
-187 268 -47 21 -65 24 -125 19 -180 -13 -337 -139 -468 -375 l-35 -64 5 74
c20 288 -6 460 -85 563 -65 86 -175 126 -282 103 -40 -9 -126 -53 -172 -89
-56 -43 -167 -154 -198 -199 -13 -19 -27 -37 -30 -40 -19 -17 -110 -167 -164
-271 l-65 -123 4 89 c5 111 13 310 21 515 3 85 7 193 9 240 5 134 -18 191 -94
229 -32 17 -76 27 -91 21 -3 -1 -17 -3 -31 -4 -41 -3 -97 -47 -120 -93 -15
-31 -21 -68 -24 -140 -2 -54 -7 -163 -10 -243 -6 -146 -8 -199 -20 -520 -4
-96 -8 -211 -10 -255 -2 -44 -4 -117 -6 -163 -1 -54 -6 -85 -13 -88 -7 -3 -39
3 -72 11 -32 9 -93 25 -134 36 -41 11 -82 21 -90 23 -35 10 -256 68 -270 71
-8 2 -51 13 -95 25 -44 12 -87 23 -95 25 -8 2 -78 20 -155 40 -77 20 -148 39
-158 40 -10 2 -32 8 -50 14 -34 10 -51 15 -227 62 -63 16 -115 31 -117 32 -1
2 12 18 30 37 18 19 66 73 107 120 41 47 77 87 80 90 3 3 61 68 130 145 68 77
126 142 129 145 3 3 40 43 81 90 41 47 91 103 110 124 51 57 49 54 130 146 41
47 83 94 94 105 36 39 47 64 53 114 10 99 -62 188 -158 195 -86 6 -112 -10
-218 -129 -25 -28 -65 -73 -90 -100 -25 -28 -77 -86 -116 -130 -38 -44 -95
-107 -125 -140 -30 -33 -86 -96 -125 -140 -38 -43 -86 -97 -107 -119 -20 -23
-49 -56 -65 -74 l-28 -32 0 818 c-1 805 -1 818 -21 857 -33 63 -125 115 -179
100z"/>
</g>
</svg>
